<svg xmlns="http://www.w3.org/2000/svg" width="960" height="540" viewBox="0 0 960 540" fill="none" aria-hidden="true">
  <defs>
    <linearGradient id="wdg" x1="0" y1="0" x2="960" y2="540" gradientUnits="userSpaceOnUse">
      <stop stop-color="#14161c"/>
      <stop offset="0.45" stop-color="#1a1d26"/>
      <stop offset="1" stop-color="#0f1116"/>
    </linearGradient>
    <linearGradient id="accent" x1="120" y1="80" x2="520" y2="420" gradientUnits="userSpaceOnUse">
      <stop stop-color="#c9a227" stop-opacity="0.35"/>
      <stop offset="1" stop-color="#c9a227" stop-opacity="0.05"/>
    </linearGradient>
    <filter id="blur" x="-20%" y="-20%" width="140%" height="140%">
      <feGaussianBlur stdDeviation="24" result="b"/>
    </filter>
  </defs>
  <rect width="960" height="540" rx="20" fill="url(#wdg)"/>
  <ellipse cx="720" cy="120" rx="200" ry="120" fill="url(#accent)" filter="url(#blur)" opacity="0.9"/>
  <rect x="64" y="72" width="560" height="360" rx="12" stroke="#2a2f3a" stroke-width="2" fill="#181b24"/>
  <rect x="80" y="92" width="528" height="28" rx="6" fill="#22262f"/>
  <circle cx="98" cy="106" r="5" fill="#3d4452"/>
  <circle cx="118" cy="106" r="5" fill="#3d4452"/>
  <circle cx="138" cy="106" r="5" fill="#3d4452"/>
  <rect x="96" y="144" width="200" height="14" rx="4" fill="#c9a227" fill-opacity="0.45"/>
  <rect x="96" y="174" width="480" height="10" rx="3" fill="#3d4452"/>
  <rect x="96" y="194" width="420" height="10" rx="3" fill="#2f3440"/>
  <rect x="96" y="214" width="380" height="10" rx="3" fill="#2f3440"/>
  <rect x="96" y="248" width="240" height="120" rx="8" fill="#22262f" stroke="#2a2f3a"/>
  <rect x="352" y="248" width="224" height="56" rx="8" fill="#22262f" stroke="#2a2f3a"/>
  <rect x="352" y="316" width="224" height="52" rx="8" fill="#22262f" stroke="#2a2f3a"/>
  <rect x="96" y="388" width="160" height="12" rx="3" fill="#c9a227" fill-opacity="0.25"/>
  <rect x="648" y="96" width="248" height="336" rx="12" stroke="#2a2f3a" stroke-width="2" fill="#181b24"/>
  <rect x="672" y="124" width="200" height="8" rx="3" fill="#3d4452"/>
  <rect x="672" y="148" width="160" height="8" rx="3" fill="#2f3440"/>
  <rect x="672" y="180" width="200" height="64" rx="8" fill="#22262f" stroke="#c9a227" stroke-opacity="0.35"/>
  <rect x="672" y="260" width="200" height="64" rx="8" fill="#22262f" stroke="#2a2f3a"/>
  <rect x="672" y="340" width="200" height="64" rx="8" fill="#22262f" stroke="#2a2f3a"/>
</svg>
