<svg width="512" height="512" viewBox="0 0 512 512" fill="none" xmlns="http://www.w3.org/2000/svg">
  <g transform="translate(80 140)">
    <path
      d="M0 0 C10 10, 20 50, 30 100 C40 150, 45 180, 50 200
         C55 180, 60 150, 70 100 C80 50, 90 10, 100 0
         C110 10, 120 50, 130 100 C140 150, 145 180, 150 200
         C155 180, 160 150, 170 100 C180 50, 190 10, 200 0
         C210 10, 220 50, 230 100 C240 150, 245 180, 250 200
         C255 180, 260 150, 270 100 C280 50, 290 10, 300 0
         C310 10, 320 50, 330 100 C340 150, 345 180, 350 200"
      stroke="#D4AF37"
      stroke-width="28"
      stroke-linecap="round"
      stroke-linejoin="round"
      fill="none"
    />
  </g>
</svg>
