<svg xmlns="http://www.w3.org/2000/svg" viewBox="0 0 3002 601" width="3002" height="601">
  <defs>
    <radialGradient id="glow">
      <stop offset="0" stop-color="#4bfac8" stop-opacity="0.5"/>
      <stop offset="0.55" stop-color="#4bfac8" stop-opacity="0.16"/>
      <stop offset="1" stop-color="#4bfac8" stop-opacity="0"/>
    </radialGradient>
  </defs>
  <g fill="#f4f3f7">
    <path d="M230.87 407.97L168.47 407.97L120.57 197.03L168.91 197.03L202.30 382.04L197.47 382.04L238.63 197.03L294.15 197.03L335.17 382.04L330.33 382.04L363.73 197.03L411.92 197.03L364.02 407.97L301.77 407.97L264.12 233.65L268.37 233.65L230.87 407.97M500.04 411.78Q476.17 411.78 457.93 401.23Q439.69 390.68 429.44 372.01Q419.18 353.33 419.18 328.87Q419.18 304.26 429.44 285.58Q439.69 266.90 457.93 256.43Q476.17 245.96 500.04 245.96Q524.07 245.96 542.30 256.43Q560.54 266.90 570.79 285.58Q581.05 304.26 581.05 328.87Q581.05 353.48 570.79 372.15Q560.54 390.83 542.23 401.30Q523.92 411.78 500.04 411.78M500.19 379.70Q516.45 379.70 525.90 366Q535.35 352.30 535.35 328.87Q535.35 305.28 525.90 291.66Q516.45 278.04 500.04 278.04Q483.78 278.04 474.33 291.66Q464.89 305.28 464.89 328.87Q464.89 352.45 474.33 366.07Q483.78 379.70 500.19 379.70M647.05 407.97L603.40 407.97L603.40 249.77L645.58 249.77L645.58 285.36L643.83 280.67Q651.30 263.10 664.92 254.53Q678.54 245.96 694.66 245.96Q699.20 245.96 703.88 246.69Q708.57 247.42 713.26 249.18L709.89 286.39Q700.37 283.75 691.58 283.75Q684.40 283.75 676.57 286.24Q668.73 288.73 662.06 294.96Q655.40 301.18 651.22 312.53Q647.05 323.89 647.05 341.46L647.05 407.97M775.60 407.97L731.95 407.97L731.95 188.24L775.60 188.24L775.60 310.70L836.68 249.77L886.49 249.77L827.01 308.95L888.83 407.97L840.05 407.97L797.72 339.12L775.60 361.09L775.60 407.97M955.12 407.97L911.47 407.97L911.47 226.18Q911.47 206.55 921.43 197.40Q931.39 188.24 953.66 188.24L985.01 188.24L985.01 220.18L962.89 220.18Q958.35 220.18 956.73 221.93Q955.12 223.69 955.12 228.38L955.12 407.97M984.86 281.70L890.52 281.70L890.52 249.77L984.86 249.77L984.86 281.70M1069.32 407.97L1042.66 407.97Q1025.08 407.97 1015.63 399.40Q1006.18 390.83 1006.18 374.72L1006.18 188.24L1049.83 188.24L1049.83 367.83Q1049.83 372.67 1051.23 374.35Q1052.62 376.04 1057.16 376.04L1069.32 376.04L1069.32 407.97M1158.17 411.78Q1134.29 411.78 1116.05 401.23Q1097.82 390.68 1087.56 372.01Q1077.31 353.33 1077.31 328.87Q1077.31 304.26 1087.56 285.58Q1097.82 266.90 1116.05 256.43Q1134.29 245.96 1158.17 245.96Q1182.19 245.96 1200.43 256.43Q1218.67 266.90 1228.92 285.58Q1239.17 304.26 1239.17 328.87Q1239.17 353.48 1228.92 372.15Q1218.67 390.83 1200.36 401.30Q1182.04 411.78 1158.17 411.78M1158.31 379.70Q1174.57 379.70 1184.02 366Q1193.47 352.30 1193.47 328.87Q1193.47 305.28 1184.02 291.66Q1174.57 278.04 1158.17 278.04Q1141.91 278.04 1132.46 291.66Q1123.01 305.28 1123.01 328.87Q1123.01 352.45 1132.46 366.07Q1141.91 379.70 1158.31 379.70M1346.63 407.97L1285.98 407.97L1247.46 249.77L1292.72 249.77L1318.36 381.89L1314.70 381.89L1345.16 249.77L1403.17 249.77L1433.49 382.33L1429.10 382.33L1455.47 249.77L1498.39 249.77L1459.71 407.97L1399.07 407.97L1369.33 266.46L1376.95 266.46"/>
    <path d="M1881.25 407.97L1818.85 407.97L1770.94 197.03L1819.28 197.03L1852.68 382.04L1847.85 382.04L1889.01 197.03L1944.53 197.03L1985.54 382.04L1980.71 382.04L2014.11 197.03L2062.30 197.03L2014.40 407.97L1952.15 407.97L1914.50 233.65L1918.75 233.65L1881.25 407.97M2150.42 411.78Q2126.54 411.78 2108.31 401.23Q2090.07 390.68 2079.82 372.01Q2069.56 353.33 2069.56 328.87Q2069.56 304.26 2079.82 285.58Q2090.07 266.90 2108.31 256.43Q2126.54 245.96 2150.42 245.96Q2174.44 245.96 2192.68 256.43Q2210.92 266.90 2221.17 285.58Q2231.43 304.26 2231.43 328.87Q2231.43 353.48 2221.17 372.15Q2210.92 390.83 2192.61 401.30Q2174.30 411.78 2150.42 411.78M2150.57 379.70Q2166.83 379.70 2176.28 366Q2185.72 352.30 2185.72 328.87Q2185.72 305.28 2176.28 291.66Q2166.83 278.04 2150.42 278.04Q2134.16 278.04 2124.71 291.66Q2115.27 305.28 2115.27 328.87Q2115.27 352.45 2124.71 366.07Q2134.16 379.70 2150.57 379.70M2297.43 407.97L2253.78 407.97L2253.78 249.77L2295.96 249.77L2295.96 286.24L2294.94 279.65Q2302.11 263.97 2315.30 254.97Q2328.48 245.96 2347.09 245.96Q2365.54 245.96 2377.33 254.31Q2389.13 262.66 2394.84 277.45Q2400.55 292.25 2400.55 311.58L2400.55 407.97L2356.90 407.97L2356.90 314.37Q2356.90 297.52 2351.33 288.22Q2345.77 278.92 2332 278.92Q2315.74 278.92 2306.58 292.83Q2297.43 306.75 2297.43 335.46L2297.43 407.97M2483.54 411.78Q2463.77 411.78 2449.12 401.82Q2434.47 391.86 2426.56 373.25Q2418.65 354.65 2418.65 328.57Q2418.65 302.50 2426.64 283.97Q2434.62 265.44 2449.27 255.70Q2463.92 245.96 2484.28 245.96Q2501.71 245.96 2515.40 254.01Q2529.10 262.07 2537.74 280.53L2533.20 280.82L2533.20 188.24L2576.86 188.24L2576.86 407.97L2535.55 407.97L2535.55 376.18L2535.99 378.38Q2528.08 395.52 2514.45 403.65Q2500.83 411.78 2483.54 411.78M2499.51 378.82Q2509.77 378.82 2517.82 373.40Q2525.88 367.98 2530.64 356.85Q2535.40 345.71 2535.40 329.16Q2535.40 304.11 2525.15 291.51Q2514.89 278.92 2499.80 278.92Q2483.98 278.92 2474.39 292.25Q2464.79 305.58 2464.79 329.45Q2464.79 352.74 2474.10 365.78Q2483.40 378.82 2499.51 378.82M2681.23 411.78Q2657.94 411.78 2639.41 401.67Q2620.88 391.56 2610.12 372.89Q2599.35 354.21 2599.35 328.72Q2599.35 303.38 2609.97 284.78Q2620.59 266.17 2638.97 256.06Q2657.36 245.96 2680.94 245.96Q2693.98 245.96 2707.38 249.91Q2720.78 253.87 2732.06 263.90Q2743.34 273.94 2750.23 291.88Q2757.11 309.82 2757.11 337.66L2627.33 337.66L2627.33 312.75L2718.15 312.75L2713.61 320.52Q2712.44 304.70 2707.75 295.03Q2703.06 285.36 2695.88 280.97Q2688.70 276.57 2679.77 276.57Q2668.20 276.57 2660.43 283.16Q2652.67 289.76 2648.79 301.55Q2644.91 313.34 2644.91 328.87Q2644.91 352.30 2653.77 365.93Q2662.63 379.55 2680.94 379.55Q2692.81 379.55 2701.38 373.40Q2709.94 367.25 2714.49 354.65L2754.04 364.76Q2748.47 381.16 2737.19 391.56Q2725.91 401.96 2711.34 406.87Q2696.76 411.78 2681.23 411.78M2822.82 407.97L2779.17 407.97L2779.17 249.77L2821.36 249.77L2821.36 285.36L2819.60 280.67Q2827.07 263.10 2840.69 254.53Q2854.31 245.96 2870.43 245.96Q2874.97 245.96 2879.66 246.69Q2884.34 247.42 2889.03 249.18L2885.66 286.39Q2876.14 283.75 2867.35 283.75Q2860.17 283.75 2852.34 286.24Q2844.50 288.73 2837.83 294.96Q2831.17 301.18 2826.99 312.53Q2822.82 323.89 2822.82 341.46"/>
  </g>
  <circle cx="1630.678515625" cy="302.5" r="114.24" fill="url(#glow)"/>
  <circle cx="1630.678515625" cy="302.5" r="35.699999999999996" fill="#4bfac8"/>
</svg>